# xmcd CD database file
#
# Track frame offsets:
#	150
#	11352
#	22863
#	34336
#	51539
#	60222
#	70262
#	79709
#	91590
#	104277
#	113920
#	126963
#	138645
#	150351
#	163885
#
# Disc length: 2315 seconds
#
# Revision: 0
# Processed by: cddbd v1.5.2PL0 Copyright (c) Steve Scherf et al.
# Submitted via: CDex 1.51
#
DISCID=b909090f
DTITLE=Jeff Wahl - 12 String
DYEAR=2006
DGENRE=New Age
TTITLE0=Colorado
TTITLE1=Brontosaurus
TTITLE2=Growing Up
TTITLE3=Africa
TTITLE4=Sweet Party
TTITLE5=Beyond
TTITLE6=Sunshine
TTITLE7=Dynamo
TTITLE8=Change
TTITLE9=Starting Over Again
TTITLE10=Escape
TTITLE11=Firefly
TTITLE12=Four Day Weekend
TTITLE13=Sam the Cat
TTITLE14=Thanksgiving
EXTD=YEAR: 2006
EXTT0=
EXTT1=
EXTT2=
EXTT3=
EXTT4=
EXTT5=
EXTT6=
EXTT7=
EXTT8=
EXTT9=
EXTT10=
EXTT11=
EXTT12=
EXTT13=
EXTT14=
PLAYORDER=
